<svg width="219" height="130" viewBox="0 0 219 130" fill="none" xmlns="http://www.w3.org/2000/svg">
<path d="M52.8245 101.907H21.8555C21.8555 101.907 0.000452809 59.034 22.0415 55.407C44.5475 51.687 61.9385 79.68 62.8685 81.075C54.4985 73.449 38.8745 60.522 29.6675 62.847C16.6475 66.102 52.8245 101.907 52.8245 101.907ZM62.8685 81.168C62.7755 80.238 60.8225 55.314 76.1675 55.407C91.8845 55.5 114.948 67.032 114.948 102L83.7935 101.907C83.7935 101.907 85.6535 63.684 76.0745 63.219C66.4955 62.754 68.3555 86.469 68.3555 86.469C68.3555 86.469 66.2165 84.237 62.8685 81.168ZM116.354 62.01C123.98 59.871 131.327 54.663 131.327 54.663C129.932 65.265 130.211 102 130.211 102H116.354V62.01ZM121.841 54.663C122.864 54.57 129.188 51.129 129.839 50.106C130.49 49.083 126.119 40.248 124.724 40.527C123.701 40.62 117.377 44.061 116.726 45.084C116.075 46.014 120.446 54.942 121.841 54.57V54.663ZM186.343 83.214C178.345 78.843 146.353 79.401 147.562 89.073C148.306 95.862 174.253 97.815 187.738 84.237L186.343 83.214ZM182.437 102C189.691 95.769 191.923 88.794 188.482 84.795C183.367 95.955 167.929 106.278 148.306 102.186C129.892 98.466 132.217 87.399 136.402 83.028C145.33 74.007 173.044 73.17 184.576 75.681L190.156 77.169C189.97 76.146 189.598 74.751 188.761 73.635C181.786 64.056 162.721 64.614 151.189 69.171L146.539 71.31L145.981 58.011C145.981 58.011 167.185 50.571 184.948 59.499C193.225 63.684 193.504 70.38 190.993 77.262C218.614 86.562 216.289 102 216.289 102H182.437Z" fill="white"/>
</svg>
