<svg xmlns="http://www.w3.org/2000/svg" viewBox="-12.28 0 6350 6350">
<path fill="#19AA1E" d="M3162.72 6350c1746.3,0 3175,-1422.4 3175,-3175 0,-1752.6 -1428.7,-3175 -3175,-3175 -1752.6,0 -3175,1422.4 -3175,3175 0,1752.6 1422.4,3175 3175,3175z"/>
<path fill="#ffffff" d="M3162.72 992.2c1091.4,0 1832.2,840.1 1832.2,1746.3 0,363.8 -79.4,681.3 -264.6,1078.2 -1084.8,0 -1283.2,721 -1329.5,1203.9l-33.1 337.3 -410 -0.1 -33.1 -337.3c-46.3,-482.9 -244.7,-1203.9 -1329.5,-1203.9 -185.2,-396.9 -264.6,-714.4 -264.6,-1078.2 0,-906.2 740.8,-1746.3 1832.2,-1746.3l0 0.1z"/>
</svg>
