<svg xmlns="http://www.w3.org/2000/svg" viewBox="0.9688 0 32 32" fill="none">
<ellipse cx="16.9688" cy="16" rx="16.0001" ry="16" fill="#CE2457"/>
<path fill-rule="evenodd" clip-rule="evenodd" d="M16.18 6.37709C11.2195 6.78274 7.32031 10.9371 7.32031 16.0021C7.32031 21.3359 11.6442 25.6597 16.9779 25.6597C22.3116 25.6597 26.6355 21.3359 26.6355 16.0021C26.6355 10.9365 22.7354 6.78182 17.7741 6.37695L17.5139 12.7203C19.0953 12.9766 20.3027 14.3484 20.3027 16.0021C20.3027 17.8384 18.8141 19.327 16.9779 19.327C15.1416 19.327 13.653 17.8384 13.653 16.0021C13.653 14.3489 14.8596 12.9776 16.4402 12.7206L16.18 6.37709Z" fill="white"/>
<ellipse cx="16.9674" cy="3.6158" rx="2.08456" ry="2.08455" fill="white"/>
</svg>
