<svg width="32" height="32" viewBox="0 0 32 32" fill="none" xmlns="http://www.w3.org/2000/svg">
<path d="M16 30C23.732 30 30 23.732 30 16C30 8.26801 23.732 2 16 2C8.26801 2 2 8.26801 2 16C2 23.732 8.26801 30 16 30Z" fill="#34E0A1"/>
<path d="M24.6471 13.2688L26.3365 11.4308H22.5901C20.7146 10.1497 18.4495 9.40356 15.9999 9.40356C13.5534 9.40356 11.2947 10.1513 9.42225 11.4308H5.6665L7.35589 13.2688C6.32038 14.2136 5.67121 15.5745 5.67121 17.0856C5.67121 19.9372 7.9832 22.2492 10.8348 22.2492C12.1895 22.2492 13.4236 21.7267 14.345 20.8726L16 22.6747L17.6549 20.8742C18.5763 21.7283 19.8089 22.2492 21.1635 22.2492C24.0151 22.2492 26.3302 19.9372 26.3302 17.0856C26.3318 15.573 25.6826 14.2121 24.6471 13.2688ZM10.8363 20.5801C8.90605 20.5801 7.34184 19.0159 7.34184 17.0856C7.34184 15.1553 8.90609 13.5911 10.8363 13.5911C12.7666 13.5911 14.3309 15.1553 14.3309 17.0856C14.3309 19.0159 12.7666 20.5801 10.8363 20.5801ZM16.0015 16.9839C16.0015 14.6845 14.3293 12.7104 12.1222 11.8673C13.3157 11.3682 14.6249 11.0914 15.9999 11.0914C17.3749 11.0914 18.6857 11.3682 19.8792 11.8673C17.6737 12.712 16.0015 14.6845 16.0015 16.9839ZM21.1651 20.5801C19.2348 20.5801 17.6705 19.0159 17.6705 17.0856C17.6705 15.1553 19.2348 13.5911 21.1651 13.5911C23.0954 13.5911 24.6596 15.1553 24.6596 17.0856C24.6596 19.0159 23.0954 20.5801 21.1651 20.5801ZM21.1651 15.2523C20.153 15.2523 19.3333 16.072 19.3333 17.084C19.3333 18.0961 20.153 18.9158 21.1651 18.9158C22.1771 18.9158 22.9968 18.0961 22.9968 17.084C22.9968 16.0735 22.1771 15.2523 21.1651 15.2523ZM12.6681 17.0856C12.6681 18.0977 11.8484 18.9173 10.8363 18.9173C9.8243 18.9173 9.00463 18.0977 9.00463 17.0856C9.00463 16.0735 9.8243 15.2539 10.8363 15.2539C11.8484 15.2523 12.6681 16.0735 12.6681 17.0856Z" fill="black"/>
</svg>
